<?xml version="1.0" encoding="UTF-8"?>
<svg id="Layer_1" xmlns="http://www.w3.org/2000/svg" version="1.1" viewBox="0 0 800 800">
  <!-- Generator: Adobe Illustrator 29.2.1, SVG Export Plug-In . SVG Version: 2.1.0 Build 116)  -->
  <defs>
    <style>
      .st0 {
        fill: none;
        stroke: #fff;
        stroke-linecap: round;
        stroke-linejoin: round;
        stroke-width: 66.7px;
      }
    </style>
  </defs>
  <path class="st0" d="M333.3,700h-126.7c-37.3,0-56,0-70.3-7.3-12.5-6.4-22.7-16.6-29.1-29.1-7.3-14.3-7.3-32.9-7.3-70.3v-320c0-37.3,0-56,7.3-70.3,6.4-12.5,16.6-22.7,29.1-29.1,14.3-7.3,32.9-7.3,70.3-7.3h386.7c37.3,0,56,0,70.3,7.3,12.5,6.4,22.7,16.6,29.1,29.1,7.3,14.3,7.3,32.9,7.3,70.3v60M233.3,100v66.7M566.7,100v66.7M100,300h600M450,433.3h-216.7M333.3,566.7h-100M466.7,700l67.5-13.5c5.9-1.2,8.8-1.8,11.6-2.8,2.4-1,4.8-2.2,6.9-3.7,2.4-1.7,4.5-3.8,8.8-8.1l138.6-138.6c18.4-18.4,18.4-48.3,0-66.7s-48.3-18.4-66.7,0l-138.6,138.6c-4.2,4.2-6.4,6.4-8.1,8.8-1.5,2.1-2.7,4.5-3.7,6.9-1.1,2.7-1.7,5.7-2.8,11.6l-13.5,67.5Z"/>
</svg>