<?xml version="1.0" encoding="UTF-8"?>
<svg id="Layer_1" xmlns="http://www.w3.org/2000/svg" xmlns:xlink="http://www.w3.org/1999/xlink" version="1.1" viewBox="0 0 800 800">
  <!-- Generator: Adobe Illustrator 29.2.1, SVG Export Plug-In . SVG Version: 2.1.0 Build 116)  -->
  <defs>
    <style>
      .st0 {
        fill: #fff;
      }
    </style>
  </defs>
  <g color-rendering="auto" image-rendering="auto" shape-rendering="auto">
    <path class="st0" d="M163.6,200.1c-7.3.6-12.9,6.8-12.8,14.3v57.2h-69.3c-7.5,0-13.6,6.4-13.7,14.1v57.1H26.1c-7.6,0-13.8,6.5-13.7,14.3v85.7c0,7.4,5.4,13.6,12.5,14.3.4,0,.8,0,1.2,0h41.7v57.1c0,7.8,6.1,14.2,13.7,14.3h69.3v57.1c0,7.3,5.4,13.4,12.5,14.1.5,0,.9,0,1.4,0h83c7.6,0,13.8-6.3,13.9-14.1v-128.6h41.3v-31.6h48.5v31.6h186.9v128.6c0,7.3,5.4,13.4,12.5,14.1.5,0,.9,0,1.4,0h83.2c7.5,0,13.6-6.3,13.7-14.1v-57.1h69.3c7.6,0,13.9-6.3,13.9-14.2h0v-57.3h41.5c7.6,0,13.9-6.3,13.9-14.2h0v-85.8c0-7.9-6.1-14.3-13.8-14.3h-41.6v-57.1c0-7.8-6.3-14.1-13.9-14.1h-69.3v-57.2c0-7.9-6.1-14.3-13.7-14.3h-83.2c-7.6,0-13.9,6.3-13.9,14.2h0v128.6h-44.2v30.3h-48.5v-30.3h-184v-128.5c0-7.9-6.1-14.3-13.8-14.3h-83.1c-.4,0-.7,0-1.1,0h0Z"/>
    <path class="st0" d="M178.3,571.5h55.4V228.5h-55.4v342.9Z"/>
    <path class="st0" d="M95.4,500h55.4v-199.9h-55.4v199.9Z"/>
    <g>
      <path class="st0" d="M40,428.7h27.8v-57.1h-27.8v57.1Z"/>
      <path class="st0" d="M261.6,428.7h276.7v-57.1h-276.7v57.1h0Z"/>
    </g>
    <path class="st0" d="M178.3,399.9v-171.4h55.4v171.4h-55.4Z"/>
    <path class="st0" d="M566.1,228.5h55.4v342.9h-55.4V228.5Z"/>
    <path class="st0" d="M566.1,400.1v171.4h55.4v-171.4h-55.4Z"/>
    <path class="st0" d="M95.4,399.9v-99.9h55.4v99.9h-55.4Z"/>
    <path class="st0" d="M649.1,300h55.4v199.9h-55.4v-199.9Z"/>
    <path class="st0" d="M649.1,400.1v99.9h55.4v-99.9h-55.4Z"/>
    <g>
      <path class="st0" d="M40,399.9v-28.4h27.8v28.4h-27.8Z"/>
      <path class="st0" d="M261.6,399.9v-28.4h276.7v28.4h-276.7Z"/>
    </g>
    <path class="st0" d="M732.2,371.5h27.6v57.1h-27.6v-57.1Z"/>
    <path class="st0" d="M732.2,400.2v28.4h27.6v-28.4h-27.6Z"/>
  </g>
</svg>