<svg width="800" height="800" viewBox="0 0 800 800" fill="none" xmlns="http://www.w3.org/2000/svg">
<path d="M333.333 700H206.667C169.33 700 150.661 700 136.401 692.733C123.856 686.343 113.658 676.143 107.266 663.6C100 649.34 100 630.67 100 593.333V273.333C100 235.997 100 217.328 107.266 203.067C113.658 190.523 123.856 180.324 136.401 173.933C150.661 166.667 169.33 166.667 206.667 166.667H593.333C630.67 166.667 649.34 166.667 663.6 173.933C676.143 180.324 686.343 190.523 692.733 203.067C700 217.328 700 235.997 700 273.333V333.333M233.333 100V166.667M566.667 100V166.667M100 300H700M450 433.337L233.333 433.333M333.333 566.67L233.333 566.667M466.667 700L534.167 686.5C540.05 685.323 542.993 684.733 545.737 683.657C548.173 682.703 550.49 681.463 552.633 679.967C555.053 678.28 557.173 676.16 561.42 671.913L700 533.333C718.41 514.923 718.41 485.077 700 466.667C681.59 448.257 651.743 448.257 633.333 466.667L494.753 605.247C490.507 609.493 488.387 611.613 486.7 614.033C485.203 616.177 483.963 618.493 483.01 620.93C481.933 623.673 481.343 626.617 480.167 632.5L466.667 700Z" stroke="#61DAFB" stroke-width="66.6667" stroke-linecap="round" stroke-linejoin="round"/>
</svg>
