<svg width="800" height="800" viewBox="0 0 800 800" fill="none" xmlns="http://www.w3.org/2000/svg">
<g clip-path="url(#clip0_2_16)">
<path d="M800 0H0V800H800V0Z" fill="white" fill-opacity="0.01"/>
<path d="M233.333 226.667C233.333 202.735 210.948 183.333 183.333 183.333C155.719 183.333 133.333 202.735 133.333 226.667V573.333C133.333 597.265 155.719 616.667 183.333 616.667C210.948 616.667 233.333 597.265 233.333 573.333V226.667Z" stroke="#61DAFB" stroke-width="66.6667" stroke-linejoin="round"/>
<path d="M666.667 226.667C666.667 202.735 644.282 183.333 616.667 183.333C589.052 183.333 566.667 202.735 566.667 226.667V573.333C566.667 597.265 589.052 616.667 616.667 616.667C644.282 616.667 666.667 597.265 666.667 573.333V226.667Z" stroke="#61DAFB" stroke-width="66.6667" stroke-linejoin="round"/>
<path d="M133.333 311.112C133.333 286.565 110.948 266.667 83.3333 266.667C55.7192 266.667 33.3333 286.565 33.3333 311.112V488.888C33.3333 513.435 55.7192 533.333 83.3333 533.333C110.948 533.333 133.333 513.435 133.333 488.888V311.112Z" stroke="#61DAFB" stroke-width="66.6667" stroke-linejoin="round"/>
<path d="M766.667 311.112C766.667 286.565 744.282 266.667 716.667 266.667C689.052 266.667 666.667 286.565 666.667 311.112V488.888C666.667 513.435 689.052 533.333 716.667 533.333C744.282 533.333 766.667 513.435 766.667 488.888V311.112Z" stroke="#61DAFB" stroke-width="66.6667" stroke-linejoin="round"/>
<path d="M566.667 450H233.333V350H566.667V450Z" stroke="#61DAFB" stroke-width="66.6667" stroke-linejoin="round"/>
</g>
<defs>
<clipPath id="clip0_2_16">
<rect width="800" height="800" fill="white"/>
</clipPath>
</defs>
</svg>
