<svg width="800" height="800" viewBox="0 0 800 800" fill="none" xmlns="http://www.w3.org/2000/svg">
<path d="M400 500C455.228 500 500 455.228 500 400C500 344.772 455.228 300 400 300C344.772 300 300 344.772 300 400C300 455.228 344.772 500 400 500Z" stroke="#61DAFB" stroke-width="50"/>
<path d="M122.041 354.64C137.792 364.537 147.927 381.397 147.927 399.997C147.927 418.6 137.792 435.46 122.041 445.357C111.322 452.09 104.416 457.473 99.5027 463.877C88.739 477.907 83.9887 495.633 86.2967 513.163C88.0274 526.31 95.793 539.76 111.324 566.663C126.856 593.563 134.622 607.013 145.142 615.087C159.169 625.85 176.898 630.6 194.428 628.293C202.429 627.24 210.543 623.95 221.732 618.037C238.181 609.343 257.853 608.997 273.965 618.3C290.076 627.603 299.609 644.81 300.304 663.4C300.777 676.05 301.986 684.723 305.075 692.18C311.841 708.513 324.819 721.493 341.153 728.26C353.407 733.333 368.937 733.333 400 733.333C431.063 733.333 446.593 733.333 458.847 728.26C475.18 721.493 488.16 708.513 494.927 692.18C498.013 684.723 499.223 676.05 499.697 663.403C500.39 644.81 509.923 627.603 526.037 618.3C542.147 609 561.817 609.347 578.263 618.04C589.457 623.953 597.57 627.243 605.57 628.297C623.1 630.607 640.83 625.853 654.857 615.09C665.377 607.02 673.143 593.567 688.677 566.667C695.59 554.69 700.967 545.38 704.953 537.573M677.957 445.36C662.207 435.463 652.073 418.603 652.07 400.003C652.07 381.4 662.207 364.537 677.957 354.64C688.677 347.907 695.58 342.523 700.493 336.12C711.257 322.093 716.007 304.364 713.7 286.834C711.97 273.687 704.203 260.236 688.67 233.335C673.14 206.434 665.373 192.983 654.853 184.911C640.827 174.147 623.097 169.397 605.567 171.704C597.567 172.758 589.453 176.047 578.263 181.961C561.813 190.655 542.143 191.001 526.033 181.699C509.923 172.397 500.39 155.19 499.697 136.601C499.223 123.951 498.013 115.278 494.927 107.821C488.16 91.486 475.18 78.5077 458.847 71.7414C446.593 66.6667 431.063 66.6667 400 66.6667C368.937 66.6667 353.407 66.6667 341.153 71.7414C324.819 78.5077 311.841 91.486 305.075 107.821C301.986 115.278 300.777 123.949 300.304 136.598C299.609 155.189 290.075 172.397 273.964 181.699C257.852 191.001 238.183 190.653 221.735 181.96C210.544 176.045 202.43 172.756 194.428 171.703C176.898 169.395 159.17 174.145 145.142 184.909C134.622 192.982 126.856 206.432 111.325 233.333C104.41 245.31 99.035 254.62 95.046 262.424" stroke="#61DAFB" stroke-width="50" stroke-linecap="round"/>
</svg>
