<?xml version="1.0" encoding="UTF-8"?>
<svg id="Layer_1" xmlns="http://www.w3.org/2000/svg" version="1.1" viewBox="0 0 800 800">
  <!-- Generator: Adobe Illustrator 29.2.1, SVG Export Plug-In . SVG Version: 2.1.0 Build 116)  -->
  <defs>
    <style>
      .st0 {
        fill: #fff;
      }
    </style>
  </defs>
  <path class="st0" d="M400,525c-68.9,0-125-56.1-125-125s56.1-125,125-125,125,56.1,125,125-56.1,125-125,125ZM400,325c-41.4,0-75,33.6-75,75s33.6,75,75,75,75-33.6,75-75-33.6-75-75-75Z"/>
  <path class="st0" d="M400,758.3c-33.2,0-51.6,0-68.4-7-22.6-9.4-40.2-27-49.6-49.6-5.1-12.3-6.2-25.2-6.7-37.4-.4-10.5-5.6-19.6-13.9-24.4-8.3-4.8-18.8-4.7-28,.2-10.8,5.7-22.6,11.2-35.7,12.9-24.3,3.2-48.3-3.3-67.8-18.2-14.5-11.1-23.6-27-40.2-55.8-16.6-28.8-25.8-44.7-28.2-62.7-3.2-24.3,3.3-48.3,18.2-67.8,8.1-10.5,18.8-18,29.1-24.5,8.9-5.6,14.2-14.6,14.2-24.2s-5.3-18.6-14.2-24.2c-11.7-7.3-15.2-22.8-7.9-34.5,7.3-11.7,22.8-15.2,34.5-7.9,23.5,14.8,37.6,39.7,37.6,66.5s-14.1,51.7-37.6,66.5c-8.6,5.4-13.4,9.2-16,12.6-6.8,8.8-9.7,19.8-8.3,30.8,1.1,8.2,8.5,21,21.9,44.3,13.4,23.3,20.8,36.1,27.4,41.1,8.8,6.8,19.8,9.7,30.8,8.3,4.3-.6,9.9-2.8,18.9-7.6,24.6-13,53.1-12.7,76.4.7,23.3,13.4,37.8,38,38.8,65.8.4,10.2,1.2,16.2,2.9,20.1,4.3,10.3,12.3,18.3,22.5,22.6,7.7,3.2,22.4,3.2,49.3,3.2s41.6,0,49.3-3.2c10.3-4.3,18.3-12.3,22.5-22.5,1.6-4,2.5-10,2.9-20.1,1-27.8,15.5-52.4,38.8-65.8,23.3-13.4,51.8-13.7,76.4-.7,9,4.7,14.6,7,18.9,7.6,11,1.5,22-1.5,30.8-8.3,6.6-5,14-17.8,27.4-41.1v-.2c6.8-11.5,12-20.6,15.7-27.8,6.3-12.3,21.3-17.2,33.6-10.9,12.3,6.3,17.2,21.3,10.9,33.6-4.3,8.3-9.8,17.9-16.8,30v.2c-16.7,28.8-25.9,44.7-40.4,55.8-19.4,14.9-43.5,21.4-67.8,18.2-13.1-1.7-24.9-7.2-35.7-12.9-9.3-4.9-19.8-5-28-.2-8.3,4.8-13.5,13.9-13.9,24.4-.5,12.2-1.6,25.1-6.7,37.4-9.4,22.6-27,40.2-49.6,49.6-16.9,7-35.2,7-68.4,7ZM677.9,470.4c-4.5,0-9.1-1.2-13.3-3.8-23.5-14.8-37.6-39.7-37.6-66.5,0-26.9,14.1-51.7,37.6-66.5,8.6-5.4,13.4-9.2,16-12.6,6.8-8.8,9.7-19.8,8.3-30.8-1.1-8.2-8.5-21-21.9-44.3-13.4-23.2-20.8-36-27.4-41.1-8.8-6.8-19.8-9.7-30.8-8.3-4.3.6-9.9,2.8-18.9,7.6-24.6,13-53.1,12.7-76.4-.7s-37.8-38-38.8-65.8c-.4-10.2-1.2-16.2-2.9-20.2-4.3-10.3-12.3-18.3-22.5-22.5-7.7-3.2-22.4-3.2-49.3-3.2s-41.6,0-49.3,3.2c-10.3,4.3-18.3,12.3-22.5,22.5-1.6,4-2.5,10-2.9,20.1-1,27.8-15.6,52.4-38.8,65.8-23.3,13.4-51.8,13.7-76.4.7-9-4.7-14.6-7-18.9-7.6-11-1.5-22,1.5-30.8,8.3-6.6,5-14,17.8-27.4,41.1-6.7,11.6-12,20.7-15.7,28-6.3,12.3-21.3,17.2-33.6,10.9-12.3-6.3-17.2-21.3-10.9-33.6,4.3-8.4,9.8-18,16.9-30.2,16.6-28.8,25.8-44.7,40.2-55.8,19.4-14.9,43.5-21.4,67.8-18.2,13.2,1.7,24.9,7.2,35.7,12.9,9.3,4.9,19.8,5,28,.2,8.3-4.8,13.5-13.9,13.9-24.4.5-12.2,1.6-25.1,6.7-37.4,9.4-22.6,27-40.2,49.6-49.6,16.9-7,35.2-7,68.4-7s51.6,0,68.4,7c22.6,9.4,40.2,27,49.6,49.6,5.1,12.3,6.2,25.2,6.7,37.4.4,10.5,5.6,19.6,13.9,24.4,8.3,4.8,18.8,4.7,28-.2,10.8-5.7,22.6-11.2,35.7-12.9,24.3-3.2,48.3,3.3,67.8,18.2,14.5,11.1,23.6,27,40.2,55.8,16.6,28.8,25.8,44.7,28.2,62.7,3.2,24.3-3.3,48.3-18.2,67.8-8.1,10.5-18.8,18-29.1,24.5-8.9,5.6-14.2,14.6-14.2,24.2,0,9.6,5.3,18.6,14.2,24.2,11.7,7.3,15.2,22.8,7.9,34.5-4.7,7.6-12.9,11.7-21.2,11.7Z"/>
</svg>